<svg width="159" height="65" viewBox="0 0 159 65" fill="none" xmlns="http://www.w3.org/2000/svg">
<path d="M0 0.687651L0.674611 0H13.6762V4.00088H4.47696V60.3257H13.5535V64.3266H0.674611L0 63.639L0 0.687651Z" fill="#B0B0B0"/>
<path d="M48.757 40.134C48.6343 44.635 46.8558 48.8859 43.7281 52.0116C40.6003 55.1373 36.43 56.9502 32.0144 57.0127C27.5988 57.0752 23.3671 55.3873 20.178 52.2617C16.989 49.1985 15.0878 44.9476 14.9038 40.5091H21.4659C21.4659 41.8844 21.7726 43.1972 22.3245 44.4474C22.8765 45.6977 23.6124 46.823 24.5937 47.7607C25.5749 48.6984 26.7402 49.4485 27.9667 49.8861C29.1933 50.3862 30.5425 50.5738 31.8917 50.5113C33.241 50.5738 34.6515 50.3862 35.8781 49.8861C37.166 49.386 38.3312 48.6359 39.3125 47.6982C40.2937 46.6979 41.0296 45.5727 41.5816 44.2599C42.0722 42.9471 42.3175 41.5718 42.2562 40.1965C42.2562 33.5701 38.0246 29.7567 31.8304 29.5692C27.9054 29.4442 25.1456 29.5692 20.4847 29.8818L17.5409 23.5679L23.0605 8.00195H44.832V14.5659H27.2308L23.6737 23.7554C26.4335 23.3803 29.1933 23.2553 31.9531 23.2553C41.9496 23.3803 48.757 29.8192 48.757 40.134Z" fill="#B0B0B0"/>
<path d="M55.2585 5.93896H61.7593V27.8188L62.066 28.1313L62.3726 27.8188C63.2312 26.756 64.3351 25.9433 65.623 25.3807C66.8496 24.8181 68.1988 24.5055 69.548 24.5055C71.2039 24.3805 72.8598 24.6306 74.393 25.2557C75.9262 25.8183 77.3367 26.756 78.5019 27.9438C79.6672 29.1316 80.5871 30.5694 81.1391 32.1322C81.691 33.6951 81.9363 35.3829 81.875 37.0708V56.3875H75.4355V37.0708C75.2516 32.8199 73.2277 30.4443 68.9347 30.4443C67.0949 30.4443 65.3164 31.1945 63.9672 32.5073C62.6179 33.8201 61.882 35.5705 61.7593 37.4459V56.2625H55.2585V5.93896Z" fill="#B0B0B0"/>
<path d="M78.1326 6.564C78.5006 6.18891 78.9299 5.87635 79.3591 5.6888C79.8498 5.50126 80.3404 5.37624 80.831 5.37624C83.4681 5.37624 84.8787 7.06411 84.8787 9.50214V17.0663H82.4869V9.7522C82.4869 8.31438 81.8123 7.56422 80.5857 7.56422C79.9111 7.56422 79.2365 7.81427 78.7459 8.31438C78.2552 8.81449 77.9486 9.43963 77.9486 10.1273V17.0663H75.5568V9.7522C75.5568 8.31438 74.8822 7.56422 73.6556 7.56422C72.981 7.56422 72.3064 7.81427 71.8158 8.31438C71.3252 8.81449 71.0185 9.43963 71.0185 10.1273V17.0663H68.6267V5.56378H70.7732L71.0185 6.564L71.1412 6.68902L71.2638 6.564C71.5705 6.18891 71.9998 5.87635 72.4291 5.6888C72.8584 5.50126 73.349 5.37624 73.9009 5.37624C74.6369 5.31372 75.3115 5.50126 75.9861 5.81383C76.5994 6.18891 77.1513 6.68902 77.5193 7.31416L78.1326 6.564Z" fill="#B0B0B0"/>
<path d="M104.441 57.0119C93.9536 57.0119 88.1887 46.3846 88.1887 32.1314C88.1887 17.8783 94.0149 7.25098 104.441 7.25098C114.867 7.25098 120.693 17.8783 120.693 32.1314C120.693 46.3846 114.867 57.0119 104.441 57.0119ZM104.441 50.6355C111.248 50.6355 114.192 43.0713 114.192 32.1314C114.192 21.1915 111.248 13.6274 104.441 13.6274C97.6333 13.6274 94.6895 21.1915 94.6895 32.1314C94.6895 43.0713 97.6333 50.6355 104.441 50.6355Z" fill="#B0B0B0"/>
<path d="M123.084 25.2558H128.972V12.0029L134.123 12.0029H135.35V25.2558H141.912V31.1946H135.35V47.1356C135.35 47.5732 135.411 48.0108 135.534 48.4484C135.718 48.886 135.963 49.2611 136.27 49.5737C136.576 49.8862 136.944 50.1363 137.374 50.2613C137.803 50.3863 138.232 50.4489 138.662 50.4489L142.587 49.7612V55.7L139.03 56.3877C132.529 56.3877 129.033 53.0744 129.033 47.1356V31.1946H123.146V25.2558H123.084Z" fill="#B0B0B0"/>
<path d="M158.104 63.639L157.43 64.3266H144.428V60.3257H153.505V4.00088H144.428V0H157.43L158.104 0.687651V63.639Z" fill="#B0B0B0"/>
</svg>
