<svg width="119" height="101" viewBox="0 0 119 101" fill="none" xmlns="http://www.w3.org/2000/svg">
<path d="M116.886 50.6159C116.886 53.7445 115.46 56.8392 112.65 59.7812C109.832 62.7309 105.683 65.4556 100.442 67.7764C89.9622 72.4163 75.3798 75.3243 59.1931 75.3243C43.0063 75.3243 28.424 72.4163 17.9445 67.7764C12.7028 65.4556 8.55413 62.7309 5.73632 59.7812C2.92578 56.8392 1.5 53.7445 1.5 50.6159C1.5 47.4873 2.92578 44.3926 5.73632 41.4506C8.55413 38.5009 12.7028 35.7762 17.9445 33.4554C28.424 28.8155 43.0063 25.9075 59.1931 25.9075C75.3798 25.9075 89.9622 28.8155 100.442 33.4554C105.683 35.7762 109.832 38.5009 112.65 41.4506C115.46 44.3926 116.886 47.4873 116.886 50.6159Z" stroke="#DBDBDB" stroke-width="3"/>
<path d="M116.886 50.6157C116.886 50.6308 116.878 50.9062 116.241 51.4209C115.624 51.9193 114.622 52.467 113.188 53.0274C110.336 54.1421 106.121 55.176 100.804 56.0548C90.1955 57.8085 75.4829 58.9007 59.1931 58.9007C42.9032 58.9007 28.1907 57.8085 17.5819 56.0548C12.2655 55.176 8.05 54.1421 5.19771 53.0274C3.76396 52.467 2.7622 51.9193 2.1452 51.4209C1.5081 50.9062 1.5 50.6308 1.5 50.6157C1.5 50.6005 1.5081 50.3251 2.1452 49.8104C2.7622 49.312 3.76396 48.7643 5.19771 48.2039C8.05 47.0892 12.2655 46.0553 17.5819 45.1765C28.1907 43.4228 42.9032 42.3306 59.1931 42.3306C75.4829 42.3306 90.1955 43.4228 100.804 45.1765C106.121 46.0553 110.336 47.0892 113.188 48.2039C114.622 48.7643 115.624 49.312 116.241 49.8104C116.878 50.3251 116.886 50.6005 116.886 50.6157Z" stroke="#DBDBDB" stroke-width="3"/>
<path d="M116.886 50.6157C116.886 77.3962 91.2918 99.4999 59.1931 99.4999C27.0943 99.4999 1.5 77.3962 1.5 50.6157C1.5 23.8352 27.0943 1.73145 59.1931 1.73145C91.2918 1.73145 116.886 23.8352 116.886 50.6157Z" stroke="#DBDBDB" stroke-width="3"/>
<path d="M59.1931 1.73157C61.1134 1.73157 63.1379 2.79983 65.1685 5.16752C67.1947 7.53007 69.0873 11.0366 70.7064 15.5003C73.9402 24.4151 75.9696 36.8301 75.9696 50.6158C75.9696 64.4015 73.9402 76.8165 70.7064 85.7314C69.0873 90.195 67.1947 93.7016 65.1685 96.0641C63.1379 98.4318 61.1134 99.5001 59.1931 99.5001C57.2728 99.5001 55.2483 98.4318 53.2177 96.0641C51.1915 93.7016 49.2989 90.195 47.6798 85.7314C44.446 76.8165 42.4166 64.4015 42.4166 50.6158C42.4166 36.8301 44.446 24.4151 47.6798 15.5003C49.2989 11.0366 51.1915 7.53007 53.2177 5.16752C55.2483 2.79983 57.2728 1.73157 59.1931 1.73157Z" stroke="#DBDBDB" stroke-width="3"/>
<path d="M59.1929 1.73157C68.269 1.73157 76.6414 7.0051 82.8072 15.8468C88.9694 24.6833 92.8285 36.9714 92.8285 50.6158C92.8285 64.2602 88.9694 76.5483 82.8072 85.3848C76.6414 94.2265 68.269 99.5001 59.1929 99.5001C50.1169 99.5001 41.7445 94.2265 35.5787 85.3849C29.4165 76.5483 25.5574 64.2602 25.5574 50.6158C25.5574 36.9714 29.4165 24.6833 35.5787 15.8468C41.7445 7.0051 50.1169 1.73157 59.1929 1.73157Z" stroke="#DBDBDB" stroke-width="3"/>
</svg>
