<svg width="87" height="86" viewBox="0 0 87 86" fill="none" xmlns="http://www.w3.org/2000/svg">
<path d="M42.9655 1.01787C42.9655 0.668755 43.2485 0.385742 43.5976 0.385742C43.9468 0.385742 44.2298 0.668756 44.2298 1.01787V12.9267C44.2298 29.1818 57.4071 42.3591 73.6621 42.3591L85.571 42.3591C85.9201 42.3591 86.2031 42.6421 86.2031 42.9912C86.2031 43.3403 85.9201 43.6233 85.571 43.6233H73.6621C57.4071 43.6233 44.2298 56.8007 44.2298 73.0557V84.9646C44.2298 85.3137 43.9468 85.5967 43.5976 85.5967C43.2485 85.5967 42.9655 85.3137 42.9655 84.9645V73.0557C42.9655 56.8006 29.7882 43.6233 13.5332 43.6233H1.62432C1.2752 43.6233 0.992188 43.3403 0.992188 42.9912C0.992188 42.6421 1.2752 42.3591 1.62432 42.3591H13.5332C29.7882 42.3591 42.9655 29.1818 42.9655 12.9267V1.01787Z" fill="#1D1D1B"/>
</svg>
