<svg width="98" height="97" viewBox="0 0 98 97" fill="none" xmlns="http://www.w3.org/2000/svg">
<path d="M47.5065 1.42569C47.5065 0.641677 48.142 0.00610352 48.926 0.00610352C49.7101 0.00610352 50.3456 0.641673 50.3456 1.42569V29.0794C50.3456 34.8315 57.3002 37.7122 61.3676 33.6448L64.9292 30.0832C65.4836 29.5288 66.3824 29.5288 66.9368 30.0832C67.4912 30.6376 67.4912 31.5364 66.9368 32.0908L63.3751 35.6524C59.3078 39.7198 62.1885 46.6744 67.9406 46.6744H95.5943C96.3783 46.6744 97.0139 47.31 97.0139 48.094C97.0139 48.878 96.3783 49.5136 95.5943 49.5136H67.9436C62.1903 49.5136 59.3091 56.4695 63.3773 60.5376L66.9398 64.1001C67.4941 64.6545 67.4941 65.5533 66.9398 66.1077C66.3854 66.6621 65.4865 66.6621 64.9322 66.1077L61.3697 62.5452C57.3015 58.477 50.3456 61.3583 50.3456 67.1115V94.7623C50.3456 95.5463 49.7101 96.1819 48.926 96.1819C48.142 96.1819 47.5065 95.5463 47.5065 94.7623V67.1086C47.5065 61.3564 40.5518 58.4757 36.4845 62.5431L32.9228 66.1048C32.3684 66.6592 31.4696 66.6592 30.9152 66.1048C30.3608 65.5504 30.3608 64.6516 30.9152 64.0972L34.4769 60.5355C38.5442 56.4682 35.6635 49.5136 29.9114 49.5136L2.25772 49.5136C1.47371 49.5136 0.838135 48.878 0.838135 48.094C0.838135 47.31 1.4737 46.6744 2.25772 46.6744H29.9085C35.6618 46.6744 38.543 39.7185 34.4748 35.6504L30.9123 32.0878C30.3579 31.5335 30.3579 30.6346 30.9123 30.0802C31.4667 29.5259 32.3655 29.5259 32.9199 30.0802L36.4824 33.6428C40.5506 37.7109 47.5065 34.8297 47.5065 29.0764V1.42569Z" fill="#B0B0B0"/>
</svg>
