<svg width="66" height="66" viewBox="0 0 66 66" fill="none" xmlns="http://www.w3.org/2000/svg">
<path d="M32.5203 1.13733C32.5203 0.872312 32.7352 0.657471 33.0002 0.657471V0.657471C33.2652 0.657471 33.4801 0.872311 33.4801 1.13733V10.1775C33.4801 22.517 43.4832 32.5201 55.8226 32.5201L64.8628 32.5201C65.1279 32.5201 65.3427 32.7349 65.3427 33V33C65.3427 33.265 65.1279 33.4798 64.8628 33.4798H55.8226C43.4832 33.4798 33.4801 43.4829 33.4801 55.8224V64.8626C33.4801 65.1276 33.2652 65.3425 33.0002 65.3425V65.3425C32.7352 65.3425 32.5203 65.1276 32.5203 64.8626V55.8224C32.5203 43.4829 22.5172 33.4798 10.1778 33.4798H1.13758C0.872556 33.4798 0.657715 33.265 0.657715 33V33C0.657715 32.7349 0.872556 32.5201 1.13758 32.5201H10.1778C22.5172 32.5201 32.5203 22.517 32.5203 10.1776V1.13733Z" fill="#9C88E3"/>
</svg>
